<svg width="32" height="32" viewBox="0 0 32 32" fill="none" xmlns="http://www.w3.org/2000/svg">
<rect width="32" height="32" rx="16" fill="#1971F5" fill-opacity="0.1"/>
<path d="M19.3333 9.33331H12.6666C10.8256 9.33331 9.33325 10.8257 9.33325 12.6666V19.3333C9.33325 21.1743 10.8256 22.6666 12.6666 22.6666H19.3333C21.1742 22.6666 22.6666 21.1743 22.6666 19.3333V12.6666C22.6666 10.8257 21.1742 9.33331 19.3333 9.33331Z" stroke="#1971F5" stroke-width="1.5" stroke-linecap="round" stroke-linejoin="round"/>
<path d="M18.6667 15.58C18.749 16.1348 18.6542 16.7015 18.3958 17.1994C18.1375 17.6972 17.7288 18.101 17.2278 18.3531C16.7267 18.6053 16.159 18.6931 15.6052 18.604C15.0514 18.5149 14.5398 18.2534 14.1432 17.8568C13.7466 17.4602 13.4852 16.9486 13.3961 16.3948C13.3069 15.8411 13.3947 15.2733 13.6469 14.7723C13.8991 14.2713 14.3028 13.8625 14.8007 13.6042C15.2985 13.3458 15.8652 13.2511 16.42 13.3334C16.986 13.4173 17.5099 13.681 17.9145 14.0856C18.319 14.4901 18.5828 15.0141 18.6667 15.58Z" stroke="#1971F5" stroke-width="1.5" stroke-linecap="round" stroke-linejoin="round"/>
<path d="M19.6667 12.3333H19.6734" stroke="#1971F5" stroke-width="1.5" stroke-linecap="round" stroke-linejoin="round"/>
</svg>
