<svg width="24" height="24" viewBox="0 0 24 24" fill="none" xmlns="http://www.w3.org/2000/svg">
<rect width="24" height="24" rx="12" fill="#1971F5" fill-opacity="0.1"/>
<g clip-path="url(#clip0_1_998)">
<path d="M16.9998 14.6716V16.1716C17.0003 16.3108 16.9718 16.4487 16.916 16.5763C16.8603 16.7039 16.7784 16.8184 16.6758 16.9125C16.5732 17.0067 16.4521 17.0783 16.3202 17.1229C16.1882 17.1676 16.0485 17.1841 15.9098 17.1716C14.3712 17.0044 12.8933 16.4787 11.5948 15.6366C10.3867 14.8689 9.36245 13.8447 8.59478 12.6366C7.74977 11.3322 7.2239 9.84709 7.05978 8.3016C7.04729 8.16333 7.06372 8.02398 7.10803 7.89241C7.15235 7.76084 7.22357 7.63994 7.31717 7.53741C7.41076 7.43487 7.52469 7.35295 7.65168 7.29686C7.77867 7.24076 7.91595 7.21173 8.05478 7.2116H9.55478C9.79744 7.20921 10.0327 7.29514 10.2167 7.45336C10.4006 7.61159 10.5208 7.83132 10.5548 8.0716C10.6181 8.55163 10.7355 9.02296 10.9048 9.4766C10.9721 9.65556 10.9866 9.85005 10.9467 10.037C10.9069 10.224 10.8142 10.3957 10.6798 10.5316L10.0448 11.1666C10.7566 12.4184 11.793 13.4548 13.0448 14.1666L13.6798 13.5316C13.8157 13.3972 13.9874 13.3045 14.1743 13.2646C14.3613 13.2248 14.5558 13.2393 14.7348 13.3066C15.1884 13.4759 15.6598 13.5933 16.1398 13.6566C16.3827 13.6909 16.6045 13.8132 16.7631 14.0003C16.9216 14.1875 17.0059 14.4264 16.9998 14.6716Z" stroke="#1971F5" stroke-linecap="round" stroke-linejoin="round"/>
</g>
<defs>
<clipPath id="clip0_1_998">
<rect width="12" height="12" fill="white" transform="translate(6 6.21167)"/>
</clipPath>
</defs>
</svg>
