<svg width="32" height="32" viewBox="0 0 32 32" fill="none" xmlns="http://www.w3.org/2000/svg">
<rect width="32" height="32" rx="16" fill="#1971F5" fill-opacity="0.1"/>
<g clip-path="url(#clip0_1_944)">
<path d="M23.3334 9.99999C22.695 10.4503 21.9882 10.7947 21.2401 11.02C20.8386 10.5583 20.305 10.2311 19.7114 10.0826C19.1179 9.9341 18.4931 9.97145 17.9215 10.1896C17.3499 10.4078 16.859 10.7963 16.5154 11.3025C16.1718 11.8087 15.9919 12.4082 16.0001 13.02V13.6867C14.8285 13.717 13.6676 13.4572 12.6208 12.9303C11.5739 12.4034 10.6736 11.6257 10.0001 10.6667C10.0001 10.6667 7.33341 16.6667 13.3334 19.3333C11.9604 20.2653 10.3249 20.7326 8.66675 20.6667C14.6667 24 22.0001 20.6667 22.0001 13C21.9995 12.8143 21.9816 12.6291 21.9467 12.4467C22.6271 11.7757 23.1073 10.9285 23.3334 9.99999V9.99999Z" stroke="#1971F5" stroke-width="1.5" stroke-linecap="round" stroke-linejoin="round"/>
</g>
<defs>
<clipPath id="clip0_1_944">
<rect width="16" height="16" fill="white" transform="translate(8 8)"/>
</clipPath>
</defs>
</svg>
